<svg width="46" height="61" viewBox="0 0 46 61" fill="none" xmlns="http://www.w3.org/2000/svg">
<path d="M7.18769 0.75323C7.13449 0.748679 7.08101 0.74895 7.02775 0.753963L7.01523 0.754724L6.99947 0.757739C6.55314 0.843094 6.2322 1.23675 6.23891 1.69104V9.92155V9.92186C6.23956 10.438 6.65789 10.8573 7.17516 10.8573H8.98294V14.7885C7.36179 15.4249 5.50233 16.2613 3.93102 17.5302C2.16264 18.9577 0.751436 20.9816 0.751436 23.6416V27.0021C0.750483 27.0269 0.750474 27.0519 0.751436 27.0766V44.8998C0.749529 44.9335 0.749514 44.9673 0.751436 45.0009V51.0817C0.751436 56.2809 5.21568 60.25 10.605 60.25H35.3004C40.6902 60.25 45.154 56.2806 45.154 51.0817V45.053C45.1588 45.0007 45.159 44.9481 45.1545 44.8958V27.0766C45.1555 27.0519 45.1555 27.0269 45.1545 27.002V23.6415C45.1545 20.9815 43.7433 18.9576 41.9744 17.5301C40.4031 16.2617 38.5437 15.4249 36.9225 14.7884V10.8572H38.7308C39.2481 10.8572 39.6666 10.4379 39.6666 9.921V1.689C39.6666 1.17191 39.2479 0.75323 38.7308 0.75323H7.18769ZM10.8549 10.8573H35.0503V15.4095V15.6595H35.085C35.1643 15.9447 35.3763 16.1812 35.6634 16.287C37.3465 16.9206 39.3074 17.784 40.8026 18.9912C42.2937 20.195 43.2819 21.6523 43.2819 23.6415V26.1355H2.62371V23.6415C2.62371 21.6524 3.61234 20.195 5.10295 18.9912C6.59313 17.7881 8.54569 16.9264 10.225 16.2935L10.2415 16.2874C10.6102 16.1523 10.8551 15.8023 10.8558 15.4099V15.4095L10.8549 10.8573ZM8.11092 2.62527H37.7947V8.98529H8.11092V2.62527ZM2.62337 28.0073H43.2815V43.9713H2.62337V28.0073ZM2.62312 45.8434H43.2815V51.0815C43.2815 55.1818 39.792 58.3778 35.3 58.3778H10.6046C6.11212 58.3778 2.62312 55.1818 2.62312 51.0815V45.8434Z" fill="#AF934D" stroke="#AF934D" stroke-width="0.5"/>
</svg>
