<svg xmlns="http://www.w3.org/2000/svg" width="15" height="20" viewBox="0 0 15 20">
<defs>
    <style>
      .cls-1 {
        fill: #AF934D;
        fill-rule: evenodd;
      }
    </style>
  </defs>
  <path id="Фигура_4" data-name="Фигура 4" class="cls-1" d="M1259.5,11592a7.424,7.424,0,0,0-7.5,7.3c0,1.9,1.2,4.5,3.56,7.8a44.99,44.99,0,0,0,3.49,4.4l0.45,0.5,0.45-.5a44.99,44.99,0,0,0,3.49-4.4c2.36-3.3,3.56-5.9,3.56-7.8A7.424,7.424,0,0,0,1259.5,11592Zm2.97,14.4a41.227,41.227,0,0,1-2.97,3.8c-0.62-.7-1.79-2.1-2.96-3.7-2.19-3.1-3.34-5.6-3.34-7.2a6.3,6.3,0,0,1,12.6,0C1265.8,11600.9,1264.65,11603.4,1262.47,11606.4Zm-2.97-11.7a4.354,4.354,0,0,0-4.43,4.3,4.43,4.43,0,0,0,8.86,0A4.354,4.354,0,0,0,1259.5,11594.7Zm0,7.5a3.151,3.151,0,1,1,3.23-3.2A3.2,3.2,0,0,1,1259.5,11602.2Z" transform="translate(-1252 -11592)"/>
</svg>
